<svg width="600" height="400" viewBox="0 0 600 400" fill="none" xmlns="http://www.w3.org/2000/svg">
<rect width="600" height="400" fill="white"/>
<path d="M590 67C590 65.8954 589.105 65 588 65H120C118.895 65 118 65.8954 118 67V388C118 389.105 118.895 390 120 390H588C589.105 390 590 389.105 590 388V67Z" fill="#F3F3F3"/>
<path d="M590 39H105V59H590V39Z" fill="#F3F3F3"/>
<path d="M590 10H10V40H590V10Z" fill="#D3DBDF"/>
<rect opacity="0.5" x="51" y="19" width="54" height="13" rx="3" fill="white"/>
<rect opacity="0.5" x="118" y="19" width="114" height="13" rx="3" fill="white"/>
<circle cx="28" cy="25" r="6" fill="white"/>
<circle cx="571" cy="25" r="4" fill="white"/>
<circle cx="551" cy="25" r="4" fill="white"/>
<circle cx="511" cy="25" r="4" fill="white"/>
<circle cx="531" cy="25" r="4" fill="white"/>
<circle cx="491" cy="25" r="4" fill="white"/>
<path d="M105 40H10V390H105V40Z" fill="#D3DBDF"/>
<path d="M26 60.3333C26 61.9902 24.6569 63.3333 23 63.3333V63.3333C21.3431 63.3333 20 61.9902 20 60.3333V60.2464C20 58.5895 21.3431 57.2464 23 57.2464V57.2464C24.6569 57.2464 26 58.5895 26 60.2464V60.3333Z" fill="white"/>
<rect x="33" y="59.2754" width="62" height="2.02899" fill="white"/>
<path d="M26 80.6232C26 82.28 24.6569 83.6232 23 83.6232V83.6232C21.3431 83.6232 20 82.28 20 80.6232V80.5362C20 78.8794 21.3431 77.5362 23 77.5362V77.5362C24.6569 77.5362 26 78.8794 26 80.5362V80.6232Z" fill="white"/>
<rect x="33" y="79.5652" width="62" height="2.02899" fill="white"/>
<path d="M26 100.913C26 102.57 24.6569 103.913 23 103.913V103.913C21.3431 103.913 20 102.57 20 100.913V100.826C20 99.1692 21.3431 97.8261 23 97.8261V97.8261C24.6569 97.8261 26 99.1692 26 100.826V100.913Z" fill="white"/>
<rect x="33" y="99.8551" width="62" height="2.02899" fill="white"/>
<path d="M26 121.203C26 122.86 24.6569 124.203 23 124.203V124.203C21.3431 124.203 20 122.86 20 121.203V121.116C20 119.459 21.3431 118.116 23 118.116V118.116C24.6569 118.116 26 119.459 26 121.116V121.203Z" fill="white"/>
<rect x="33" y="120.145" width="62" height="2.02899" fill="white"/>
<path d="M26 141.493C26 143.15 24.6569 144.493 23 144.493V144.493C21.3431 144.493 20 143.15 20 141.493V141.406C20 139.749 21.3431 138.406 23 138.406V138.406C24.6569 138.406 26 139.749 26 141.406V141.493Z" fill="white"/>
<rect x="33" y="140.435" width="62" height="2.02899" fill="white"/>
<path d="M26 161.783C26 163.439 24.6569 164.783 23 164.783V164.783C21.3431 164.783 20 163.439 20 161.783V161.696C20 160.039 21.3431 158.696 23 158.696V158.696C24.6569 158.696 26 160.039 26 161.696V161.783Z" fill="white"/>
<rect x="33" y="160.725" width="62" height="2.02899" fill="white"/>
<path d="M26 182.072C26 183.729 24.6569 185.072 23 185.072V185.072C21.3431 185.072 20 183.729 20 182.072V181.985C20 180.329 21.3431 178.985 23 178.985V178.985C24.6569 178.985 26 180.329 26 181.985V182.072Z" fill="white"/>
<rect x="33" y="181.014" width="62" height="2.02899" fill="white"/>
<path d="M26 202.362C26 204.019 24.6569 205.362 23 205.362V205.362C21.3431 205.362 20 204.019 20 202.362V202.275C20 200.618 21.3431 199.275 23 199.275V199.275C24.6569 199.275 26 200.618 26 202.275V202.362Z" fill="white"/>
<rect x="33" y="201.304" width="62" height="2.02899" fill="white"/>
<path d="M26 222.652C26 224.309 24.6569 225.652 23 225.652V225.652C21.3431 225.652 20 224.309 20 222.652V222.565C20 220.908 21.3431 219.565 23 219.565V219.565C24.6569 219.565 26 220.908 26 222.565V222.652Z" fill="white"/>
<rect x="33" y="221.594" width="62" height="2.02899" fill="white"/>
</svg>
